999
dxfrw 0.6.3
  0
SECTION
  2
HEADER
  9
$ACADVER
  1
AC1021
  9
$DWGCODEPAGE
  3
ANSI_1252
  9
$INSBASE
 10
0
 20
0
 30
0
  9
$EXTMIN
 10
44.46382017854251
 20
8.451800529805601
 30
0
  9
$EXTMAX
 10
327.7631478042804
 20
245.6597207081082
 30
0
  9
$LIMMIN
 10
0
 20
0
  9
$LIMMAX
 10
420
 20
297
  9
$ORTHOMODE
 70
    0
  9
$REGENMODE
 70
    1
  9
$FILLMODE
 70
    1
  9
$QTEXTMODE
 70
    0
  9
$MIRRTEXT
 70
    0
  9
$LTSCALE
 40
1
  9
$ATTMODE
 70
    0
  9
$TEXTSIZE
 40
2.5
  9
$TRACEWID
 40
15.68
  9
$TEXTSTYLE
  7
STANDARD
  9
$CLAYER
  8
0
  9
$CELTYPE
  6
BYLAYER
  9
$CECOLOR
 62
  256
  9
$CELTSCALE
 40
1
  9
$DISPSILH
 70
    0
  9
$DIMSCALE
 40
2.5
  9
$DIMASZ
 40
2.5
  9
$DIMEXO
 40
0.625
  9
$DIMDLI
 40
3.75
  9
$DIMRND
 40
0
  9
$DIMDLE
 40
0
  9
$DIMEXE
 40
1.25
  9
$DIMTP
 40
0
  9
$DIMTM
 40
0
  9
$DIMTXT
 40
2.5
  9
$DIMCEN
 40
2.5
  9
$DIMTSZ
 40
0
  9
$DIMTOL
 70
    0
  9
$DIMLIM
 70
    0
  9
$DIMTIH
 70
    0
  9
$DIMTOH
 70
    0
  9
$DIMSE1
 70
    0
  9
$DIMSE2
 70
    0
  9
$DIMTAD
 70
    1
  9
$DIMZIN
 70
    8
  9
$DIMBLK
  1

  9
$DIMASO
 70
    1
  9
$DIMSHO
 70
    1
  9
$DIMPOST
  1

  9
$DIMAPOST
  1

  9
$DIMALT
 70
    0
  9
$DIMALTD
 70
    3
  9
$DIMALTF
 40
0.03937
  9
$DIMLFAC
 40
1
  9
$DIMTOFL
 70
    1
  9
$DIMTVP
 40
0
  9
$DIMTIX
 70
    0
  9
$DIMSOXD
 70
    0
  9
$DIMSAH
 70
    0
  9
$DIMBLK1
  1

  9
$DIMBLK2
  1

  9
$DIMSTYLE
  2
STANDARD
  9
$DIMCLRD
 70
    0
  9
$DIMCLRE
 70
    0
  9
$DIMCLRT
 70
    0
  9
$DIMTFAC
 40
1
  9
$DIMGAP
 40
0.625
  9
$DIMJUST
 70
    0
  9
$DIMSD1
 70
    0
  9
$DIMSD2
 70
    0
  9
$DIMTOLJ
 70
    0
  9
$DIMTZIN
 70
    8
  9
$DIMALTZ
 70
    0
  9
$DIMALTTZ
 70
    0
  9
$DIMUPT
 70
    0
  9
$DIMDEC
 70
    2
  9
$DIMTDEC
 70
    2
  9
$DIMALTU
 70
    2
  9
$DIMALTTD
 70
    3
  9
$DIMTXSTY
  7
STANDARD
  9
$DIMAUNIT
 70
    0
  9
$DIMADEC
 70
    0
  9
$DIMALTRND
 40
0
  9
$DIMAZIN
 70
    0
  9
$DIMDSEP
 70
   44
  9
$DIMATFIT
 70
    3
  9
$DIMFRAC
 70
    0
  9
$DIMLDRBLK
  1
STANDARD
  9
$DIMLUNIT
 70
    2
  9
$DIMLWD
 70
   -2
  9
$DIMLWE
 70
   -2
  9
$DIMTMOVE
 70
    0
  9
$DIMFXL
 40
1
  9
$DIMFXLON
 70
    0
  9
$DIMJOGANG
 40
0.7854
  9
$DIMTFILL
 70
    0
  9
$DIMTFILLCLR
 70
    0
  9
$DIMARCSYM
 70
    0
  9
$DIMLTYPE
  6

  9
$DIMLTEX1
  6

  9
$DIMLTEX2
  6

  9
$LUNITS
 70
    2
  9
$LUPREC
 70
    4
  9
$SKETCHINC
 40
1
  9
$FILLETRAD
 40
0
  9
$AUNITS
 70
    0
  9
$AUPREC
 70
    2
  9
$MENU
  1
.
  9
$ELEVATION
 40
0
  9
$PELEVATION
 40
0
  9
$THICKNESS
 40
0
  9
$LIMCHECK
 70
    0
  9
$CHAMFERA
 40
0
  9
$CHAMFERB
 40
0
  9
$CHAMFERC
 40
0
  9
$CHAMFERD
 40
0
  9
$SKPOLY
 70
    0
  9
$USRTIMER
 70
    1
  9
$ANGBASE
 50
0
  9
$ANGDIR
 70
    0
  9
$PDMODE
 70
   34
  9
$PDSIZE
 40
0
  9
$PLINEWID
 40
0
  9
$SPLFRAME
 70
    0
  9
$SPLINETYPE
 70
    2
  9
$SPLINESEGS
 70
    8
  9
$HANDSEED
  5
20000
  9
$SURFTAB1
 70
    6
  9
$SURFTAB2
 70
    6
  9
$SURFTYPE
 70
    6
  9
$SURFU
 70
    6
  9
$SURFV
 70
    6
  9
$UCSBASE
  2

  9
$UCSNAME
  2

  9
$UCSORG
 10
0
 20
0
 30
0
  9
$UCSXDIR
 10
1
 20
0
 30
0
  9
$UCSYDIR
 10
0
 20
1
 30
0
  9
$UCSORTHOREF
  2

  9
$UCSORTHOVIEW
 70
    0
  9
$UCSORGTOP
 10
0
 20
0
 30
0
  9
$UCSORGBOTTOM
 10
0
 20
0
 30
0
  9
$UCSORGLEFT
 10
0
 20
0
 30
0
  9
$UCSORGRIGHT
 10
0
 20
0
 30
0
  9
$UCSORGFRONT
 10
0
 20
0
 30
0
  9
$UCSORGBACK
 10
0
 20
0
 30
0
  9
$PUCSBASE
  2

  9
$PUCSNAME
  2

  9
$PUCSORG
 10
0
 20
0
 30
0
  9
$PUCSXDIR
 10
1
 20
0
 30
0
  9
$PUCSYDIR
 10
0
 20
1
 30
0
  9
$PUCSORTHOREF
  2

  9
$PUCSORTHOVIEW
 70
    0
  9
$PUCSORGTOP
 10
0
 20
0
 30
0
  9
$PUCSORGBOTTOM
 10
0
 20
0
 30
0
  9
$PUCSORGLEFT
 10
0
 20
0
 30
0
  9
$PUCSORGRIGHT
 10
0
 20
0
 30
0
  9
$PUCSORGFRONT
 10
0
 20
0
 30
0
  9
$PUCSORGBACK
 10
0
 20
0
 30
0
  9
$USERI1
 70
    0
  9
$USERI2
 70
    0
  9
$USERI3
 70
    0
  9
$USERI4
 70
    0
  9
$USERI5
 70
    0
  9
$USERR1
 40
0
  9
$USERR2
 40
0
  9
$USERR3
 40
0
  9
$USERR4
 40
0
  9
$USERR5
 40
0
  9
$WORLDVIEW
 70
    1
  9
$SHADEDGE
 70
    3
  9
$SHADEDIF
 70
   70
  9
$TILEMODE
 70
    1
  9
$MAXACTVP
 70
   64
  9
$PINSBASE
 10
0
 20
0
 30
0
  9
$PLIMCHECK
 70
    0
  9
$PEXTMIN
 10
0
 20
0
 30
0
  9
$PEXTMAX
 10
0
 20
0
 30
0
  9
$SNAPSTYLE
 70
    0
  9
$PLIMMIN
 10
0
 20
0
  9
$PLIMMAX
 10
210
 20
297
  9
$UNITMODE
 70
    0
  9
$VISRETAIN
 70
    1
  9
$PLINEGEN
 70
    0
  9
$PSLTSCALE
 70
    1
  9
$TREEDEPTH
 70
 3020
  9
$CMLSTYLE
  2
Standard
  9
$CMLJUST
 70
    0
  9
$CMLSCALE
 40
20
  9
$PROXYGRAPHICS
 70
    1
  9
$MEASUREMENT
 70
    1
  9
$CELWEIGHT
370
   -1
  9
$ENDCAPS
280
    0
  9
$JOINSTYLE
280
    0
  9
$LWDISPLAY
290
    0
  9
$INSUNITS
 70
    4
  9
$HYPERLINKBASE
  1

  9
$STYLESHEET
  1

  9
$XEDIT
290
    1
  9
$CEPSNTYPE
380
    0
  9
$PSTYLEMODE
290
    1
  9
$EXTNAMES
290
    1
  9
$PSVPSCALE
 40
1
  9
$OLESTARTUP
290
    0
  9
$SORTENTS
280
  127
  9
$INDEXCTL
280
    0
  9
$HIDETEXT
280
    1
  9
$XCLIPFRAME
290
    0
  9
$HALOGAP
280
    0
  9
$OBSCOLOR
 70
  257
  9
$OBSLTYPE
280
    0
  9
$INTERSECTIONDISPLAY
280
    0
  9
$INTERSECTIONCOLOR
 70
  257
  9
$DIMASSOC
280
    1
  9
$PROJECTNAME
  1

  9
$CAMERADISPLAY
290
    0
  9
$LENSLENGTH
 40
50
  9
$CAMERAHEIGHT
 40
0
  9
$STEPSPERSEC
 40
2
  9
$STEPSIZE
 40
50
  9
$3DDWFPREC
 40
2
  9
$PSOLWIDTH
 40
5
  9
$PSOLHEIGHT
 40
80
  9
$LOFTANG1
 40
1.570796326794897
  9
$LOFTANG2
 40
1.570796326794897
  9
$LOFTMAG1
 40
0
  9
$LOFTMAG2
 40
0
  9
$LOFTPARAM
 70
    7
  9
$LOFTNORMALS
280
    1
  9
$LATITUDE
 40
1
  9
$LONGITUDE
 40
1
  9
$NORTHDIRECTION
 40
0
  9
$TIMEZONE
 70
-8000
  9
$LIGHTGLYPHDISPLAY
280
    1
  9
$TILEMODELIGHTSYNCH
280
    1
  9
$SOLIDHIST
280
    1
  9
$SHOWHIST
280
    1
  9
$DWFFRAME
280
    2
  9
$DGNFRAME
280
    0
  9
$REALWORLDSCALE
290
    1
  9
$INTERFERECOLOR
 62
    1
  9
$CSHADOW
280
    0
  9
$SHADOWPLANELOCATION
 40
0
  0
ENDSEC
  0
SECTION
  2
CLASSES
  0
ENDSEC
  0
SECTION
  2
TABLES
  0
TABLE
  2
VPORT
  5
8
330
0
100
AcDbSymbolTable
 70
    1
  0
VPORT
  5
31
330
2
100
AcDbSymbolTableRecord
100
AcDbViewportTableRecord
  2
*ACTIVE
 70
    0
 10
0
 20
0
 11
1
 21
1
 12
236.0992104521911
 22
133.575195329761
 13
0
 23
0
 14
10
 24
10
 15
10
 25
10
 16
0
 26
0
 36
1
 17
0
 27
0
 37
0
 40
301.6925319552512
 41
1.800243605359318
 42
50
 43
0
 44
0
 50
0
 51
0
 71
    0
 72
  100
 73
    1
 74
    3
 75
    0
 76
    1
 77
    0
 78
    0
281
    0
 65
    1
110
0
120
0
130
0
111
1
121
0
131
0
112
0
122
1
132
0
 79
    0
146
0
348
10020
 60
    7
 61
    5
292
1
282
    1
141
0
142
0
 63
  250
421
3358443
  0
ENDTAB
  0
TABLE
  2
LTYPE
  5
5
330
0
100
AcDbSymbolTable
 70
    4
  0
LTYPE
  5
14
330
5
100
AcDbSymbolTableRecord
100
AcDbLinetypeTableRecord
  2
ByBlock
 70
    0
  3

 72
   65
 73
    0
 40
0
  0
LTYPE
  5
15
330
5
100
AcDbSymbolTableRecord
100
AcDbLinetypeTableRecord
  2
ByLayer
 70
    0
  3

 72
   65
 73
    0
 40
0
  0
LTYPE
  5
16
330
5
100
AcDbSymbolTableRecord
100
AcDbLinetypeTableRecord
  2
Continuous
 70
    0
  3
Solid line
 72
   65
 73
    0
 40
0
  0
LTYPE
  5
32
330
5
100
AcDbSymbolTableRecord
100
AcDbLinetypeTableRecord
  2
DOT
 70
    0
  3
Dot . . . . . . . . . . . . . . . . . . . . . .
 72
   65
 73
    2
 40
6.35
 49
0
 74
    0
 49
-6.35
 74
    0
  0
LTYPE
  5
33
330
5
100
AcDbSymbolTableRecord
100
AcDbLinetypeTableRecord
  2
DOTTINY
 70
    0
  3
Dot (.15x) .....................................
 72
   65
 73
    2
 40
0.9525
 49
0
 74
    0
 49
-0.9525
 74
    0
  0
LTYPE
  5
34
330
5
100
AcDbSymbolTableRecord
100
AcDbLinetypeTableRecord
  2
DOT2
 70
    0
  3
Dot (.5x) .....................................
 72
   65
 73
    2
 40
3.175
 49
0
 74
    0
 49
-3.175
 74
    0
  0
LTYPE
  5
35
330
5
100
AcDbSymbolTableRecord
100
AcDbLinetypeTableRecord
  2
DOTX2
 70
    0
  3
Dot (2x) .  .  .  .  .  .  .  .  .  .  .  .  .
 72
   65
 73
    2
 40
12.7
 49
0
 74
    0
 49
-12.7
 74
    0
  0
LTYPE
  5
36
330
5
100
AcDbSymbolTableRecord
100
AcDbLinetypeTableRecord
  2
DASHED
 70
    0
  3
Dashed _ _ _ _ _ _ _ _ _ _ _ _ _ _ _ _ _
 72
   65
 73
    2
 40
19.05
 49
12.7
 74
    0
 49
-6.35
 74
    0
  0
LTYPE
  5
37
330
5
100
AcDbSymbolTableRecord
100
AcDbLinetypeTableRecord
  2
DASHEDTINY
 70
    0
  3
Dashed (.15x) _ _ _ _ _ _ _ _ _ _ _ _ _ _ _ _ _
 72
   65
 73
    2
 40
2.8575
 49
1.905
 74
    0
 49
-0.9525
 74
    0
  0
LTYPE
  5
38
330
5
100
AcDbSymbolTableRecord
100
AcDbLinetypeTableRecord
  2
DASHED2
 70
    0
  3
Dashed (.5x) _ _ _ _ _ _ _ _ _ _ _ _ _ _ _ _ _
 72
   65
 73
    2
 40
9.524999999999999
 49
6.35
 74
    0
 49
-3.175
 74
    0
  0
LTYPE
  5
39
330
5
100
AcDbSymbolTableRecord
100
AcDbLinetypeTableRecord
  2
DASHEDX2
 70
    0
  3
Dashed (2x) ____  ____  ____  ____  ____  ___
 72
   65
 73
    2
 40
38.09999999999999
 49
25.4
 74
    0
 49
-12.7
 74
    0
  0
LTYPE
  5
3A
330
5
100
AcDbSymbolTableRecord
100
AcDbLinetypeTableRecord
  2
DASHDOT
 70
    0
  3
Dash dot __ . __ . __ . __ . __ . __ . __ . __
 72
   65
 73
    4
 40
25.4
 49
12.7
 74
    0
 49
-6.35
 74
    0
 49
0
 74
    0
 49
-6.35
 74
    0
  0
LTYPE
  5
3B
330
5
100
AcDbSymbolTableRecord
100
AcDbLinetypeTableRecord
  2
DASHDOTTINY
 70
    0
  3
Dash dot (.15x) _._._._._._._._._._._._._._._.
 72
   65
 73
    4
 40
3.81
 49
1.905
 74
    0
 49
-0.9525
 74
    0
 49
0
 74
    0
 49
-0.9525
 74
    0
  0
LTYPE
  5
3C
330
5
100
AcDbSymbolTableRecord
100
AcDbLinetypeTableRecord
  2
DASHDOT2
 70
    0
  3
Dash dot (.5x) _._._._._._._._._._._._._._._.
 72
   65
 73
    4
 40
12.7
 49
6.35
 74
    0
 49
-3.175
 74
    0
 49
0
 74
    0
 49
-3.175
 74
    0
  0
LTYPE
  5
3D
330
5
100
AcDbSymbolTableRecord
100
AcDbLinetypeTableRecord
  2
DASHDOTX2
 70
    0
  3
Dash dot (2x) ____  .  ____  .  ____  .  ___
 72
   65
 73
    4
 40
50.8
 49
25.4
 74
    0
 49
-12.7
 74
    0
 49
0
 74
    0
 49
-12.7
 74
    0
  0
LTYPE
  5
3E
330
5
100
AcDbSymbolTableRecord
100
AcDbLinetypeTableRecord
  2
DIVIDE
 70
    0
  3
Divide ____ . . ____ . . ____ . . ____ . . ____
 72
   65
 73
    6
 40
31.75
 49
12.7
 74
    0
 49
-6.35
 74
    0
 49
0
 74
    0
 49
-6.35
 74
    0
 49
0
 74
    0
 49
-6.35
 74
    0
  0
LTYPE
  5
3F
330
5
100
AcDbSymbolTableRecord
100
AcDbLinetypeTableRecord
  2
DIVIDETINY
 70
    0
  3
Divide (.15x) __..__..__..__..__..__..__..__.._
 72
   65
 73
    6
 40
4.7625
 49
1.905
 74
    0
 49
-0.9525
 74
    0
 49
0
 74
    0
 49
-0.9525
 74
    0
 49
0
 74
    0
 49
-0.9525
 74
    0
  0
LTYPE
  5
40
330
5
100
AcDbSymbolTableRecord
100
AcDbLinetypeTableRecord
  2
DIVIDE2
 70
    0
  3
Divide (.5x) __..__..__..__..__..__..__..__.._
 72
   65
 73
    6
 40
15.875
 49
6.35
 74
    0
 49
-3.175
 74
    0
 49
0
 74
    0
 49
-3.175
 74
    0
 49
0
 74
    0
 49
-3.175
 74
    0
  0
LTYPE
  5
41
330
5
100
AcDbSymbolTableRecord
100
AcDbLinetypeTableRecord
  2
DIVIDEX2
 70
    0
  3
Divide (2x) ________  .  .  ________  .  .  _
 72
   65
 73
    6
 40
63.5
 49
25.4
 74
    0
 49
-12.7
 74
    0
 49
0
 74
    0
 49
-12.7
 74
    0
 49
0
 74
    0
 49
-12.7
 74
    0
  0
LTYPE
  5
42
330
5
100
AcDbSymbolTableRecord
100
AcDbLinetypeTableRecord
  2
BORDER
 70
    0
  3
Border __ __ . __ __ . __ __ . __ __ . __ __ .
 72
   65
 73
    6
 40
44.45
 49
12.7
 74
    0
 49
-6.35
 74
    0
 49
12.7
 74
    0
 49
-6.35
 74
    0
 49
0
 74
    0
 49
-6.35
 74
    0
  0
LTYPE
  5
43
330
5
100
AcDbSymbolTableRecord
100
AcDbLinetypeTableRecord
  2
BORDERTINY
 70
    0
  3
Border (.15x) __.__.__.__.__.__.__.__.__.__.__.
 72
   65
 73
    6
 40
6.6675
 49
1.905
 74
    0
 49
-0.9525
 74
    0
 49
1.905
 74
    0
 49
-0.9525
 74
    0
 49
0
 74
    0
 49
-0.9525
 74
    0
  0
LTYPE
  5
44
330
5
100
AcDbSymbolTableRecord
100
AcDbLinetypeTableRecord
  2
BORDER2
 70
    0
  3
Border (.5x) __.__.__.__.__.__.__.__.__.__.__.
 72
   65
 73
    6
 40
22.225
 49
6.35
 74
    0
 49
-3.175
 74
    0
 49
6.35
 74
    0
 49
-3.175
 74
    0
 49
0
 74
    0
 49
-3.175
 74
    0
  0
LTYPE
  5
45
330
5
100
AcDbSymbolTableRecord
100
AcDbLinetypeTableRecord
  2
BORDERX2
 70
    0
  3
Border (2x) ____  ____  .  ____  ____  .  ___
 72
   65
 73
    6
 40
88.89999999999999
 49
25.4
 74
    0
 49
-12.7
 74
    0
 49
25.4
 74
    0
 49
-12.7
 74
    0
 49
0
 74
    0
 49
-12.7
 74
    0
  0
LTYPE
  5
46
330
5
100
AcDbSymbolTableRecord
100
AcDbLinetypeTableRecord
  2
CENTER
 70
    0
  3
Center ____ _ ____ _ ____ _ ____ _ ____ _ ____
 72
   65
 73
    4
 40
50.8
 49
31.75
 74
    0
 49
-6.35
 74
    0
 49
6.35
 74
    0
 49
-6.35
 74
    0
  0
LTYPE
  5
47
330
5
100
AcDbSymbolTableRecord
100
AcDbLinetypeTableRecord
  2
CENTERTINY
 70
    0
  3
Center (.15x) ___ _ ___ _ ___ _ ___ _ ___ _ ___
 72
   65
 73
    4
 40
7.619999999999999
 49
4.7625
 74
    0
 49
-0.9525
 74
    0
 49
0.9525
 74
    0
 49
-0.9525
 74
    0
  0
LTYPE
  5
48
330
5
100
AcDbSymbolTableRecord
100
AcDbLinetypeTableRecord
  2
CENTER2
 70
    0
  3
Center (.5x) ___ _ ___ _ ___ _ ___ _ ___ _ ___
 72
   65
 73
    4
 40
28.575
 49
19.05
 74
    0
 49
-3.175
 74
    0
 49
3.175
 74
    0
 49
-3.175
 74
    0
  0
LTYPE
  5
49
330
5
100
AcDbSymbolTableRecord
100
AcDbLinetypeTableRecord
  2
CENTERX2
 70
    0
  3
Center (2x) ________  __  ________  __  _____
 72
   65
 73
    4
 40
101.6
 49
63.5
 74
    0
 49
-12.7
 74
    0
 49
12.7
 74
    0
 49
-12.7
 74
    0
  0
ENDTAB
  0
TABLE
  2
LAYER
  5
2
330
0
100
AcDbSymbolTable
 70
    1
  0
LAYER
  5
10
330
2
100
AcDbSymbolTableRecord
100
AcDbLayerTableRecord
  2
0
 70
    0
 62
    7
  6
CONTINUOUS
370
    0
390
F
  0
ENDTAB
  0
TABLE
  2
STYLE
  5
3
330
0
100
AcDbSymbolTable
 70
    3
  0
STYLE
  5
4A
330
2
100
AcDbSymbolTableRecord
100
AcDbTextStyleTableRecord
  2
Standard
 70
    0
 40
0
 41
1
 50
0
 71
    0
 42
1
  3
txt
  4

  0
ENDTAB
  0
TABLE
  2
VIEW
  5
6
330
0
100
AcDbSymbolTable
 70
    0
  0
ENDTAB
  0
TABLE
  2
UCS
  5
7
330
0
100
AcDbSymbolTable
 70
    0
  0
ENDTAB
  0
TABLE
  2
APPID
  5
9
330
0
100
AcDbSymbolTable
 70
    1
  0
APPID
  5
12
330
9
100
AcDbSymbolTableRecord
100
AcDbRegAppTableRecord
  2
ACAD
 70
    0
  0
APPID
  5
4B
330
9
100
AcDbSymbolTableRecord
100
AcDbRegAppTableRecord
  2
LibreCad
 70
    0
  0
ENDTAB
  0
TABLE
  2
DIMSTYLE
  5
A
330
0
100
AcDbSymbolTable
 70
    1
100
AcDbDimStyleTable
 71
    1
  0
DIMSTYLE
105
4C
330
A
100
AcDbSymbolTableRecord
100
AcDbDimStyleTableRecord
  2
Standard
 70
    0
 40
1
 41
2.5
 42
0.625
 43
0.38
 44
1.25
 45
0
 46
0
 47
0
 48
0
 49
1
140
2.5
141
0.09
142
2.5
143
25.4
144
1
145
0
146
1
147
0.625
148
0
 71
    0
 72
    0
 73
    0
 74
    1
 75
    0
 76
    0
 77
    0
 78
    1
 79
    0
170
    0
171
    2
172
    0
173
    0
174
    0
175
    0
176
    0
177
    0
178
    0
179
    0
271
    2
272
    4
273
    2
274
    2
275
    0
276
    0
277
    2
278
    0
279
    0
280
    0
281
    0
282
    0
283
    1
284
    0
285
    0
286
    0
288
    0
289
    3
340
standard
341

371
   -2
372
   -2
  0
ENDTAB
  0
TABLE
  2
BLOCK_RECORD
  5
1
330
0
100
AcDbSymbolTable
 70
    2
  0
BLOCK_RECORD
  5
1F
330
1
100
AcDbSymbolTableRecord
100
AcDbBlockTableRecord
  2
*Model_Space
 70
    0
280
    1
281
    0
  0
BLOCK_RECORD
  5
1E
330
1
100
AcDbSymbolTableRecord
100
AcDbBlockTableRecord
  2
*Paper_Space
 70
    0
280
    1
281
    0
  0
ENDTAB
  0
ENDSEC
  0
SECTION
  2
BLOCKS
  0
BLOCK
  5
20
330
1F
100
AcDbEntity
  8
0
100
AcDbBlockBegin
  2
*Model_Space
 70
    0
 10
0
 20
0
 30
0
  3
*Model_Space
  1

  0
ENDBLK
  5
21
330
1F
100
AcDbEntity
  8
0
100
AcDbBlockEnd
  0
BLOCK
  5
1C
330
1B
100
AcDbEntity
  8
0
100
AcDbBlockBegin
  2
*Paper_Space
 70
    0
 10
0
 20
0
 30
0
  3
*Paper_Space
  1

  0
ENDBLK
  5
1D
330
1F
100
AcDbEntity
  8
0
100
AcDbBlockEnd
  0
ENDSEC
  0
SECTION
  2
ENTITIES
  0
LINE
  5
4D
100
AcDbEntity
  8
0
  6
CONTINUOUS
 62
    3
370
   70
100
AcDbLine
 10
49.9887824915532
 20
9.970061881971828
 11
270.173721908614
 21
9.997687261769808
  0
LINE
  5
4E
100
AcDbEntity
  8
0
  6
CONTINUOUS
 62
    3
370
   70
100
AcDbLine
 10
270.173721908614
 20
9.997687261769808
 11
270.0949999616715
 21
89.97918535592848
  0
LINE
  5
4F
100
AcDbEntity
  8
0
  6
CONTINUOUS
 62
    3
370
   70
100
AcDbLine
 10
270.0949999616715
 20
89.97918535592848
 11
263.0020595299971
 21
90.00148787361687
  0
LINE
  5
50
100
AcDbEntity
  8
0
  6
CONTINUOUS
 62
    7
370
   70
100
AcDbLine
 10
49.91954595070831
 20
20.00936030479154
 11
260.0018498961716
 21
20.00970259717191
  0
LINE
  5
51
100
AcDbEntity
  8
0
  6
CONTINUOUS
 62
    7
370
   70
100
AcDbLine
 10
260.0018498961716
 20
20.00970259717191
 11
259.9974309111563
 21
71.99904838705773
  0
LINE
  5
52
100
AcDbEntity
  8
0
  6
CONTINUOUS
 62
    7
370
   70
100
AcDbLine
 10
259.9974309111563
 20
71.99904838705773
 11
248.9424499855591
 21
75.97808360013374
  0
LINE
  5
53
100
AcDbEntity
  8
0
  6
CONTINUOUS
 62
    7
370
   70
100
AcDbLine
 10
248.9424499855591
 20
75.97808360013374
 11
260.0117926055414
 21
79.93478479195721
  0
LINE
  5
54
100
AcDbEntity
  8
0
  6
CONTINUOUS
 62
    7
370
   70
100
AcDbLine
 10
260.0117926055414
 20
79.93478479195721
 11
259.9567219665577
 21
100.0489328158946
  0
LINE
  5
55
100
AcDbEntity
  8
0
  6
CONTINUOUS
 62
    7
370
   70
100
AcDbLine
 10
259.9567219665577
 20
100.0489328158946
 11
210.13290147074
 21
100.0468015239602
  0
LINE
  5
56
100
AcDbEntity
  8
0
  6
CONTINUOUS
 62
    7
370
   70
100
AcDbLine
 10
210.13290147074
 20
100.0468015239602
 11
210.0161727900867
 21
220.0013702506763
  0
LINE
  5
57
100
AcDbEntity
  8
0
  6
CONTINUOUS
 62
    5
370
   70
100
AcDbLine
 10
200.048928115172
 20
219.9737448311404
 11
200.0438383567959
 21
45.04084935493162
  0
CIRCLE
  5
58
100
AcDbEntity
  8
0
  6
CONTINUOUS
 62
    7
370
   70
100
AcDbCircle
 10
200.0345615215609
 20
44.13078412149027
 40
1
  0
CIRCLE
  5
59
100
AcDbEntity
  8
0
  6
CONTINUOUS
 62
    7
370
   70
100
AcDbCircle
 10
190.0194442512712
 20
44.0772273446438
 40
1
  0
LINE
  5
5A
100
AcDbEntity
  8
0
  6
CONTINUOUS
 62
    5
370
   70
100
AcDbLine
 10
189.9896711857116
 20
43.08815462279632
 11
190.0001850853026
 21
29.99496934387641
  0
LINE
  5
5B
100
AcDbEntity
  8
0
  6
CONTINUOUS
 62
    5
370
   70
100
AcDbLine
 10
190.0001850853026
 20
29.99496934387641
 11
229.9174941189062
 21
30.2168730071692
  0
CIRCLE
  5
5C
100
AcDbEntity
  8
0
  6
CONTINUOUS
 62
    7
370
   70
100
AcDbCircle
 10
230.0146441897778
 20
44.27803039114581
 40
1
  0
CIRCLE
  5
5D
100
AcDbEntity
  8
0
  6
CONTINUOUS
 62
    7
370
   70
100
AcDbCircle
 10
240.0416640903739
 20
44.34285142653081
 40
1
  0
LINE
  5
5E
100
AcDbEntity
  8
0
  6
CONTINUOUS
 62
    5
370
   70
100
AcDbLine
 10
229.9174941189062
 20
30.2168730071692
 11
230.0024159485374
 21
43.2810684509847
  0
LINE
  5
5F
100
AcDbEntity
  8
0
  6
CONTINUOUS
 62
    5
370
   70
100
AcDbLine
 10
239.9987693817638
 20
45.34253449644949
 11
239.9678747007457
 21
60.05909881544212
  0
LINE
  5
60
100
AcDbEntity
  8
0
  6
CONTINUOUS
 62
    5
370
   70
100
AcDbLine
 10
220.0973531850554
 20
60.1486056691164
 11
219.9183394777068
 21
76.25983933048687
  0
LINE
  5
61
100
AcDbEntity
  8
0
  6
CONTINUOUS
 62
    5
370
   70
100
AcDbLine
 10
219.9183394777068
 20
76.25983933048687
 11
230.8883672592467
 21
76.21119934924354
  0
CIRCLE
  5
62
100
AcDbEntity
  8
0
  6
CONTINUOUS
 62
   16
420
8388608
370
   60
100
AcDbCircle
 10
170.0394053970525
 20
49.90971436191262
 40
5
  0
CIRCLE
  5
63
100
AcDbEntity
  8
0
  6
CONTINUOUS
 62
   16
420
8388608
370
   60
100
AcDbCircle
 10
169.9064712386261
 20
75.05241027818693
 40
5
  0
LINE
  5
64
100
AcDbEntity
  8
0
  6
CONTINUOUS
 62
   16
420
8388608
370
   60
100
AcDbLine
 10
165.3295244672893
 20
73.0395619847606
 11
174.6163521683893
 21
51.92256265533895
  0
LINE
  5
65
100
AcDbEntity
  8
0
  6
CONTINUOUS
 62
   16
420
8388608
370
   60
100
AcDbLine
 10
174.5044461453459
 20
73.08807151993382
 11
165.4414304903327
 21
51.87405312016573
  0
CIRCLE
  5
66
100
AcDbEntity
  8
0
  6
CONTINUOUS
 62
    3
370
   70
100
AcDbCircle
 10
240.2174595498367
 20
90.02369148832994
 40
5
  0
LINE
  5
67
100
AcDbEntity
  8
0
  6
CONTINUOUS
 62
    3
370
   70
100
AcDbLine
 10
256.9907465045235
 20
89.98519687642208
 11
245.2080122295414
 21
89.98830490074505
  0
CIRCLE
  5
68
100
AcDbEntity
  8
0
  6
CONTINUOUS
 62
    5
370
   70
100
AcDbCircle
 10
233.1886695728195
 20
76.22943147258738
 40
3
  0
CIRCLE
  5
69
100
AcDbEntity
  8
0
  6
CONTINUOUS
 62
    7
370
   70
100
AcDbCircle
 10
245.9974296295213
 20
75.95248530919923
 40
3
  0
LINE
  5
6A
100
AcDbEntity
  8
0
  6
CONTINUOUS
 62
    5
370
   70
100
AcDbLine
 10
50.02400792520075
 20
30.05208762361401
 11
170.1141808611695
 21
30.04865872761398
  0
LINE
  5
6B
100
AcDbEntity
  8
0
  6
CONTINUOUS
 62
    5
370
   70
100
AcDbLine
 10
170.1141808611695
 20
30.04865872761398
 11
170.0992340525925
 21
44.8921178766023
  0
LINE
  5
6C
100
AcDbEntity
  8
0
  6
CONTINUOUS
 62
    5
370
   70
100
AcDbLine
 10
170.0093297394046
 20
80.07016981149032
 11
169.9928998125047
 21
90.02203365070932
  0
LINE
  5
6D
100
AcDbEntity
  8
0
  6
CONTINUOUS
 62
    5
370
   70
100
AcDbLine
 10
169.9928998125047
 20
90.02203365070932
 11
190.0730010281318
 21
89.97538510207421
  0
LINE
  5
6E
100
AcDbEntity
  8
0
  6
CONTINUOUS
 62
    5
370
   70
100
AcDbLine
 10
190.0730010281318
 20
89.97538510207421
 11
190.0129828575317
 21
45.08506333006638
  0
ARC
  5
6F
100
AcDbEntity
  8
0
  6
CONTINUOUS
 62
    3
370
   70
100
AcDbCircle
 10
259.9948693172165
 20
90.73867383824526
 40
3.096294337926452
100
AcDbArc
 50
194.0786290690048
 51
346.2269403654902
  0
LINE
  5
70
100
AcDbEntity
  8
0
  6
CONTINUOUS
 62
    7
370
   70
100
AcDbLine
 10
190.5591062897911
 20
44.90736837700653
 11
198.1714996483187
 21
49.72024175985393
  0
LINE
  5
71
100
AcDbEntity
  8
0
  6
CONTINUOUS
 62
    7
370
   70
100
AcDbLine
 10
198.1714996483187
 20
49.72024175985393
 11
198.7467434789379
 21
48.89572560263306
  0
LINE
  5
72
100
AcDbEntity
  8
0
  6
CONTINUOUS
 62
    7
370
   70
100
AcDbLine
 10
198.7467434789379
 20
48.89572560263306
 11
191.0193013542865
 21
44.08285221978566
  0
LINE
  5
73
100
AcDbEntity
  8
0
  6
CONTINUOUS
 62
    7
370
   70
100
AcDbLine
 10
230.5744542752197
 20
45.18060972435943
 11
238.1868476337472
 21
49.99348310720683
  0
LINE
  5
74
100
AcDbEntity
  8
0
  6
CONTINUOUS
 62
    7
370
   70
100
AcDbLine
 10
238.1868476337472
 20
49.99348310720683
 11
238.7620914643664
 21
49.16896694998596
  0
LINE
  5
75
100
AcDbEntity
  8
0
  6
CONTINUOUS
 62
    7
370
   70
100
AcDbLine
 10
238.7620914643664
 20
49.16896694998596
 11
231.034649339715
 21
44.35609356713856
  0
SPLINE
  5
76
100
AcDbEntity
  8
0
  6
CONTINUOUS
 62
    1
370
   60
100
AcDbSpline
210
0
220
0
230
0
 70
    8
 71
    2
 72
   20
 73
   17
 74
    0
 42
1e-07
 43
1e-07
 40
0
 40
0
 40
0
 40
0.06666666666666667
 40
0.1333333333333333
 40
0.2
 40
0.2666666666666667
 40
0.3333333333333333
 40
0.4
 40
0.4666666666666667
 40
0.5333333333333333
 40
0.6
 40
0.6666666666666666
 40
0.7333333333333333
 40
0.8
 40
0.8666666666666667
 40
0.9333333333333333
 40
1
 40
1
 40
1
 10
199.8526315334099
 20
219.7114763159645
 30
0
 10
194.2990239844644
 20
227.929420386475
 30
0
 10
195.6089153198619
 20
234.9810128294808
 30
0
 10
198.3418788665477
 20
237.3908230934581
 30
0
 10
202.2554942825759
 20
238.3018576103095
 30
0
 10
206.7625871106289
 20
235.6663260433884
 30
0
 10
208.2416147279114
 20
229.8610278234286
 30
0
 10
206.0410081351731
 20
225.4379068552943
 30
0
 10
205.1124662790571
 20
223.6079137558732
 30
0
 10
203.7837906712531
 20
225.3285286701375
 30
0
 10
202.0048901962898
 20
229.8687461264158
 30
0
 10
203.7948614073954
 20
235.6098887065666
 30
0
 10
208.5851738236713
 20
238.2099511793653
 30
0
 10
212.7091106426475
 20
237.4382023849258
 30
0
 10
215.4470642460379
 20
234.9625793994477
 30
0
 10
216.1209540124848
 20
227.8192255526092
 30
0
 10
210.2228911772941
 20
220.0966563184743
 30
0
  0
MTEXT
  5
77
100
AcDbEntity
  8
0
  6
CONTINUOUS
 62
    7
370
   60
100
AcDbMText
 10
153.9697574777621
 20
66.87946506193964
 30
0
 40
5
 41
13.88889146032488
 71
    5
 72
    1
  1
Fuse
  7

210
0
220
0
230
1
 50
0
 73
    2
 44
1
  0
CIRCLE
  5
78
100
AcDbEntity
  8
0
  6
CONTINUOUS
 62
    7
370
  100
100
AcDbCircle
 10
240.1017478656652
 20
82.38672023149573
 40
15
  0
LINE
  5
79
100
AcDbEntity
  8
0
  6
CONTINUOUS
 62
    5
370
   70
100
AcDbLine
 10
239.9678747007457
 20
60.05909881544212
 11
220.3305185402996
 21
59.94211335807688
  0
MTEXT
  5
7A
100
AcDbEntity
  8
0
  6
CONTINUOUS
 62
    7
370
   60
100
AcDbMText
 10
238.2944490135285
 20
225.2802512331287
 30
0
 40
5
 41
15.00000000000047
 71
    5
 72
    1
  1
Lamp
  7

210
0
220
0
230
1
 50
0
 73
    2
 44
1
  0
MTEXT
  5
7B
100
AcDbEntity
  8
0
  6
CONTINUOUS
 62
    7
370
   60
100
AcDbMText
 10
163.9489743369914
 20
163.3506204160535
 30
0
 40
5
 41
30.97222222222246
 71
    5
 72
    1
  1
Half Wire
  7

210
0
220
0
230
1
 50
0
 73
    2
 44
1
  0
MTEXT
  5
7C
100
AcDbEntity
  8
0
  6
CONTINUOUS
 62
    7
370
   60
100
AcDbMText
 10
287.7500000018928
 20
104.750000000689
 30
0
 40
5
 41
60.69444338443448
 71
    5
 72
    1
  1
3 Pin Wall Socket\P5 Amp
  7

210
0
220
0
230
1
 50
0
 73
    2
 44
1
  0
MTEXT
  5
7D
100
AcDbEntity
  8
0
  6
CONTINUOUS
 62
    7
370
   60
100
AcDbMText
 10
300.9575927787299
 20
34.90961088397967
 30
0
 40
5
 41
53.61111005110106
 71
    5
 72
    1
  1
One Way Switch\P5 Amp
  7

210
0
220
0
230
1
 50
0
 73
    2
 44
1
  0
MTEXT
  5
7E
100
AcDbEntity
  8
0
  6
CONTINUOUS
 62
    7
370
   60
100
AcDbMText
 10
231.505840599023
 20
87.82523159232777
 30
0
 40
5
 41
2.222222222222222
 71
    5
 72
    1
  1
E
  7

210
0
220
0
230
1
 50
0
 73
    2
 44
1
  0
MTEXT
  5
7F
100
AcDbEntity
  8
0
  6
CONTINUOUS
 62
    7
370
   60
100
AcDbMText
 10
45.57493128965363
 20
10.9518005298056
 30
0
 40
5
 41
2.222222222222222
 71
    5
 72
    1
  1
E
  7

210
0
220
0
230
1
 50
0
 73
    2
 44
1
  0
MTEXT
  5
80
100
AcDbEntity
  8
0
  6
CONTINUOUS
 62
    7
370
   60
100
AcDbMText
 10
210.5600740686352
 20
41.89153306077559
 30
0
 40
5
 41
13.1944433844337
 71
    5
 72
    1
  1
S -1
  7

210
0
220
0
230
1
 50
0
 73
    2
 44
1
  0
MTEXT
  5
81
100
AcDbEntity
  8
0
  6
CONTINUOUS
 62
    7
370
   60
100
AcDbMText
 10
242.5299282465955
 20
36.37948923698933
 30
0
 40
5
 41
14.30555449554481
 71
    5
 72
    1
  1
S -2
  7

210
0
220
0
230
1
 50
0
 73
    2
 44
1
  0
LINE
  5
82
100
AcDbEntity
  8
0
  6
CONTINUOUS
 62
    7
370
   60
100
AcDbLine
 10
243.2648674231004
 20
43.72888100203767
 11
284.0539917191187
 21
25.72287117766922
  0
LINE
  5
83
100
AcDbEntity
  8
0
  6
ByLayer
 62
  256
370
   -1
100
AcDbLine
 10
284.0539917191187
 20
25.72287117766922
 11
325.2105856033895
 21
26.09034076592164
  0
LINE
  5
84
100
AcDbEntity
  8
0
  6
CONTINUOUS
 62
    7
370
   60
100
AcDbLine
 10
255.3913638354301
 20
84.15053570980359
 11
273.3973736597986
 21
96.6445017103858
  0
LINE
  5
85
100
AcDbEntity
  8
0
  6
CONTINUOUS
 62
    7
370
   60
100
AcDbLine
 10
273.3973736597986
 20
96.6445017103858
 11
320.8009505443604
 21
96.27703212213338
  0
LINE
  5
86
100
AcDbEntity
  8
0
  6
CONTINUOUS
 62
    7
370
   60
100
AcDbLine
 10
214.9697091276642
 20
228.1986143047512
 11
226.7287359517416
 21
221.2166921279553
  0
LINE
  5
87
100
AcDbEntity
  8
0
  6
CONTINUOUS
 62
    7
370
   60
100
AcDbLine
 10
226.7287359517416
 20
221.2166921279553
 11
249.5118504233915
 21
220.8492225397029
  0
LINE
  5
88
100
AcDbEntity
  8
0
  6
CONTINUOUS
 62
    7
370
   60
100
AcDbLine
 10
148.8251832422291
 20
159.1143317132968
 11
198.4335776563054
 21
159.4818013015492
  0
LINE
  5
89
100
AcDbEntity
  8
0
  6
CONTINUOUS
 62
    7
370
   60
100
AcDbLine
 10
243.5031027817814
 20
41.68300906514408
 11
242.9565598307524
 21
43.90561706599529
  0
LINE
  5
8A
100
AcDbEntity
  8
0
  6
CONTINUOUS
 62
    7
370
   60
100
AcDbLine
 10
242.9565598307524
 20
43.90561706599529
 11
244.9241144544567
 21
44.23354283661268
  0
LINE
  5
8B
100
AcDbEntity
  8
0
  6
CONTINUOUS
 62
    7
370
   60
100
AcDbLine
 10
256.1922606116867
 20
87.07615427479163
 11
255.4946048939117
 21
84.24192792133071
  0
LINE
  5
8C
100
AcDbEntity
  8
0
  6
CONTINUOUS
 62
    7
370
   60
100
AcDbLine
 10
255.4946048939117
 20
84.24192792133071
 11
258.2416242826507
 21
83.91490180362368
  0
LINE
  5
8D
100
AcDbEntity
  8
0
  6
CONTINUOUS
 62
    7
370
   60
100
AcDbLine
 10
196.2759742403239
 20
161.7454826873091
 11
198.8291979517097
 21
159.4897219325895
  0
LINE
  5
8E
100
AcDbEntity
  8
0
  6
CONTINUOUS
 62
    7
370
   60
100
AcDbLine
 10
198.8291979517097
 20
159.4897219325895
 11
196.424705718657
 21
157.4818469750919
  0
LINE
  5
8F
100
AcDbEntity
  8
0
  6
CONTINUOUS
 62
    7
370
   60
100
AcDbLine
 10
215.9898498749047
 20
225.8878403708376
 11
215.1395819688665
 21
228.0898162300649
  0
LINE
  5
90
100
AcDbEntity
  8
0
  6
CONTINUOUS
 62
    7
370
   60
100
AcDbLine
 10
215.1395819688665
 20
228.0898162300649
 11
217.5159717575376
 21
227.9154023006212
  0
MTEXT
  5
91
100
AcDbEntity
  8
0
  6
CONTINUOUS
 62
    7
370
   60
100
AcDbMText
 10
46.28502294762662
 20
20.20388791491462
 30
0
 40
5
 41
2.777777777777778
 71
    5
 72
    1
  1
N
  7

210
0
220
0
230
1
 50
0
 73
    2
 44
1
  0
MTEXT
  5
92
100
AcDbEntity
  8
0
  6
CONTINUOUS
 62
    7
370
   60
100
AcDbMText
 10
46.05359957618982
 20
30.27080457241509
 30
0
 40
5
 41
2.777777777777778
 71
    5
 72
    1
  1
P
  7

210
0
220
0
230
1
 50
0
 73
    2
 44
1
  0
MTEXT
  5
93
100
AcDbEntity
  8
0
  6
CONTINUOUS
 62
    7
370
   60
100
AcDbMText
 10
252.5479472025899
 20
67.57098890200116
 30
0
 40
5
 41
2.777777777777778
 71
    5
 72
    1
  1
N
  7

210
0
220
0
230
1
 50
0
 73
    2
 44
1
  0
MTEXT
  5
94
100
AcDbEntity
  8
0
  6
CONTINUOUS
 62
    7
370
   60
100
AcDbMText
 10
227.8658479638998
 20
68.1693428229391
 30
0
 40
5
 41
2.777777777777778
 71
    5
 72
    1
  1
P
  7

210
0
220
0
230
1
 50
0
 73
    2
 44
1
  0
LINE
  5
95
100
AcDbEntity
  8
0
  6
CONTINUOUS
 62
    7
370
   50
100
AcDbLine
 10
81.40630080716321
 20
33.09808809133346
 11
85.3159455169809
 21
30.09890858791166
  0
LINE
  5
96
100
AcDbEntity
  8
0
  6
CONTINUOUS
 62
    7
370
   50
100
AcDbLine
 10
85.3159455169809
 20
30.09890858791166
 11
81.35274403031639
 21
27.63529685295804
  0
LINE
  5
97
100
AcDbEntity
  8
0
  6
CONTINUOUS
 62
    7
370
   50
100
AcDbLine
 10
211.2740384446626
 20
33.41860946077344
 11
215.1836831544803
 21
30.41942995735164
  0
LINE
  5
98
100
AcDbEntity
  8
0
  6
CONTINUOUS
 62
    7
370
   50
100
AcDbLine
 10
215.1836831544803
 20
30.41942995735164
 11
211.2204816678158
 21
27.95581822239802
  0
LINE
  5
99
100
AcDbEntity
  8
0
  6
CONTINUOUS
 62
    7
370
   50
100
AcDbLine
 10
193.3023280970289
 20
67.90418954740015
 11
190.3031485936071
 21
63.99454483758247
  0
LINE
  5
9A
100
AcDbEntity
  8
0
  6
CONTINUOUS
 62
    7
370
   50
100
AcDbLine
 10
190.3031485936071
 20
63.99454483758247
 11
187.8395368586535
 21
67.95774632424697
  0
LINE
  5
9B
100
AcDbEntity
  8
0
  6
CONTINUOUS
 62
    7
370
   50
100
AcDbLine
 10
263.0109721106664
 20
54.68731000521799
 11
260.0117926072446
 21
50.7776652954003
  0
LINE
  5
9C
100
AcDbEntity
  8
0
  6
CONTINUOUS
 62
    7
370
   50
100
AcDbLine
 10
260.0117926072446
 20
50.7776652954003
 11
257.548180872291
 21
54.74086678206481
  0
LINE
  5
9D
100
AcDbEntity
  8
0
  6
CONTINUOUS
 62
    7
370
   50
100
AcDbLine
 10
197.037817866241
 20
191.1075197435933
 11
200.0369973696628
 21
195.017164453411
  0
LINE
  5
9E
100
AcDbEntity
  8
0
  6
CONTINUOUS
 62
    7
370
   50
100
AcDbLine
 10
200.0369973696628
 20
195.017164453411
 11
202.5006091046164
 21
191.0539629667464
  0
LINE
  5
9F
100
AcDbEntity
  8
0
  6
CONTINUOUS
 62
    7
370
   50
100
AcDbLine
 10
212.8900084817896
 20
195.1704430779128
 11
209.8908289783678
 21
191.2607983680951
  0
LINE
  5
A0
100
AcDbEntity
  8
0
  6
CONTINUOUS
 62
    7
370
   50
100
AcDbLine
 10
209.8908289783678
 20
191.2607983680951
 11
207.4272172434142
 21
195.2239998547596
  0
LINE
  5
A1
100
AcDbEntity
  8
0
  6
CONTINUOUS
 62
    7
370
   50
100
AcDbLine
 10
209.9731108754234
 20
245.6597207081082
 11
213.8827555852411
 21
242.6605412046864
  0
LINE
  5
A2
100
AcDbEntity
  8
0
  6
CONTINUOUS
 62
    7
370
   50
100
AcDbLine
 10
213.8827555852411
 20
242.6605412046864
 11
209.9195540985766
 21
240.1969294697328
  0
LINE
  5
A3
100
AcDbEntity
  8
0
  6
CONTINUOUS
 62
    7
370
   50
100
AcDbLine
 10
213.7347300490785
 20
242.7015064536161
 11
197.7756758790314
 21
242.6650702568808
  0
LINE
  5
A4
100
AcDbEntity
  8
0
  6
CONTINUOUS
 62
    7
370
   50
100
AcDbLine
 10
85.28266722253161
 20
17.19901045418597
 11
81.3730225127139
 21
20.19818995760777
  0
LINE
  5
A5
100
AcDbEntity
  8
0
  6
CONTINUOUS
 62
    7
370
   50
100
AcDbLine
 10
81.3730225127139
 20
20.19818995760777
 11
85.33622399937843
 21
22.66180169256139
  0
ENDSEC
  0
SECTION
  2
OBJECTS
  0
DICTIONARY
  5
C
330
0
100
AcDbDictionary
281
    1
  3
ACAD_GROUP
350
D
  0
DICTIONARY
  5
D
330
C
100
AcDbDictionary
281
    1
  0
ENDSEC
  0
EOF
